<?xml version="1.0" standalone="no"?>
<!DOCTYPE svg PUBLIC "-//W3C//DTD SVG 20010904//EN"
 "http://www.w3.org/TR/2001/REC-SVG-20010904/DTD/svg10.dtd">
<svg version="1.0" xmlns="http://www.w3.org/2000/svg"
 width="200" height="86.000000pt" viewBox="0 0 305.000000 86.000000"
 preserveAspectRatio="xMidYMid meet">

<g transform="translate(0.000000,86.000000) scale(0.100000,-0.100000)"
fill="#000000" stroke="none">
<path d="M129 757 c-36 -27 -39 -52 -39 -302 l0 -247 29 -29 29 -29 176 0
c174 0 177 0 216 -26 26 -18 59 -29 93 -32 33 -3 59 -11 70 -23 20 -21 38 -24
53 -9 7 7 20 0 39 -20 33 -34 64 -38 88 -12 24 26 21 47 -12 84 -23 27 -26 36
-17 51 9 15 7 22 -11 37 -17 13 -23 29 -23 60 0 39 -29 112 -50 125 -6 4 -10
67 -10 160 0 165 -7 196 -47 214 -35 16 -563 15 -584 -2z m586 -32 c24 -23 25
-29 25 -165 0 -118 -2 -140 -15 -140 -12 0 -15 18 -15 105 0 94 -2 105 -20
115 -29 16 -382 9 -388 -7 -3 -10 39 -13 187 -13 l191 0 0 -96 c0 -90 -1 -95
-20 -89 -29 9 -95 -12 -131 -42 -37 -32 -59 -78 -59 -128 l0 -35 -150 0 -150
0 0 195 0 195 51 0 c36 0 49 4 47 13 -6 16 -81 21 -108 7 -19 -10 -20 -20 -20
-214 0 -156 3 -206 13 -215 8 -6 76 -12 172 -13 120 -2 159 -6 163 -16 3 -11
-29 -13 -167 -10 -148 3 -173 5 -188 21 -16 16 -18 41 -18 268 l0 251 24 19
c22 18 42 19 288 19 l264 0 24 -25z m31 -355 c38 -38 57 -92 48 -138 -3 -17
-25 -49 -50 -73 -41 -40 -48 -43 -99 -43 -59 0 -91 17 -129 67 -27 37 -27 117
0 155 40 53 83 74 142 70 43 -4 59 -11 88 -38z m78 -203 c-8 -18 -64 -60 -71
-53 -9 8 58 77 68 70 5 -2 6 -10 3 -17z m46 -109 c0 -25 -29 -23 -57 4 -22 20
-22 23 -6 40 16 18 17 18 40 -4 13 -12 23 -30 23 -40z"/>
<path d="M160 715 c-18 -22 -1 -50 31 -50 20 0 24 5 24 30 0 23 -5 31 -21 33
-11 2 -27 -4 -34 -13z"/>
<path d="M237 724 c-15 -16 -7 -53 14 -59 30 -10 58 19 43 43 -12 18 -45 28
-57 16z"/>
<path d="M220 541 c0 -45 -2 -51 -21 -51 -27 0 -20 -24 9 -28 28 -4 44 28 40
80 -5 63 -28 62 -28 -1z"/>
<path d="M280 570 c-40 -40 -11 -110 45 -110 32 0 65 33 65 65 0 14 -9 34 -20
45 -11 11 -31 20 -45 20 -14 0 -34 -9 -45 -20z m84 -33 c16 -26 -27 -62 -55
-47 -19 10 -26 50 -12 64 13 12 56 2 67 -17z"/>
<path d="M410 525 l0 -65 29 0 c35 0 65 26 56 49 -4 9 -8 25 -9 37 -4 34 -15
44 -47 44 l-29 0 0 -65z m50 25 c0 -5 -7 -10 -15 -10 -8 0 -15 5 -15 10 0 6 7
10 15 10 8 0 15 -4 15 -10z m5 -50 c0 -8 -8 -16 -17 -18 -13 -2 -18 3 -18 18
0 15 5 20 18 18 9 -2 17 -10 17 -18z"/>
<path d="M200 395 c0 -13 13 -15 85 -13 111 4 111 22 0 26 -72 2 -85 0 -85
-13z"/>
<path d="M200 345 c0 -13 13 -15 85 -13 111 4 111 22 0 26 -72 2 -85 0 -85
-13z"/>
<path d="M200 295 c0 -13 13 -15 85 -13 111 4 111 22 0 26 -72 2 -85 0 -85
-13z"/>
<path d="M583 360 c-41 -25 -53 -48 -53 -104 0 -100 116 -147 194 -79 24 21
34 43 20 43 -3 0 -19 -11 -36 -25 -42 -35 -91 -34 -129 4 -37 37 -38 79 -3
120 21 26 33 31 69 31 36 0 48 -5 69 -31 14 -17 26 -39 26 -50 0 -10 5 -19 10
-19 16 0 12 53 -6 78 -36 51 -107 66 -161 32z"/>
<path d="M1400 401 l0 -150 43 0 c23 -1 50 -1 60 -1 55 -2 94 69 76 135 -13
48 -48 69 -99 61 l-40 -6 0 55 c0 48 -2 55 -20 55 -19 0 -20 -7 -20 -149z
m138 -9 c18 -24 15 -69 -8 -92 -41 -41 -92 -16 -92 45 0 66 62 95 100 47z"/>
<path d="M2270 400 c0 -127 2 -150 15 -150 11 0 15 11 15 40 0 22 4 40 9 40 4
0 21 -18 36 -40 20 -28 35 -40 52 -40 24 0 24 1 -16 51 l-41 51 41 49 c39 46
40 49 17 49 -14 0 -33 -13 -51 -35 -15 -19 -32 -35 -37 -35 -6 0 -10 38 -10
85 0 69 -3 85 -15 85 -13 0 -15 -23 -15 -150z"/>
<path d="M1090 379 c0 -139 -1 -151 -19 -156 -24 -6 -16 -43 9 -43 44 0 50 22
50 191 0 152 -1 159 -20 159 -19 0 -20 -7 -20 -151z"/>
<path d="M1570 510 c0 -17 7 -20 40 -20 l40 0 0 -120 c0 -113 1 -120 20 -120
19 0 20 7 20 120 l0 120 40 0 c33 0 40 3 40 20 0 19 -7 20 -100 20 -93 0 -100
-1 -100 -20z"/>
<path d="M1205 428 c-53 -47 -41 -148 20 -174 40 -17 98 -3 120 29 18 25 20
86 4 120 -22 49 -100 62 -144 25z m110 -41 c44 -64 -36 -144 -90 -91 -25 25
-17 95 13 110 30 15 58 7 77 -19z"/>
<path d="M1770 350 c0 -93 1 -100 20 -100 18 0 20 7 20 71 0 69 1 71 30 82 18
7 30 19 30 29 0 21 -30 24 -49 6 -11 -10 -14 -10 -18 0 -3 6 -11 12 -19 12
-11 0 -14 -20 -14 -100z"/>
<path d="M1913 444 c-7 -3 -13 -14 -13 -25 0 -15 4 -17 24 -9 33 12 66 2 66
-21 0 -13 -7 -19 -25 -19 -81 0 -119 -86 -52 -118 23 -11 34 -11 57 -2 20 8
34 9 48 1 27 -15 29 -14 35 9 3 13 0 20 -9 20 -10 0 -14 15 -14 58 0 81 -16
107 -65 109 -22 1 -46 0 -52 -3z m77 -128 c0 -35 -64 -53 -76 -21 -9 23 15 45
47 45 24 0 29 -4 29 -24z"/>
<path d="M2117 439 c-28 -16 -49 -74 -41 -114 9 -48 43 -76 92 -77 45 0 62 7
62 27 0 10 -11 12 -40 8 -51 -7 -80 16 -80 62 0 50 20 68 74 68 39 -1 47 2 44
15 -4 21 -83 28 -111 11z"/>
<path d="M2461 433 c-54 -44 -41 -146 21 -176 46 -22 108 -15 108 13 0 15 -7
17 -42 13 -36 -4 -47 -1 -67 20 -12 14 -20 30 -16 36 3 6 35 11 71 11 l64 0 0
29 c0 59 -90 93 -139 54z m89 -23 c4 0 10 -7 14 -15 4 -12 -4 -15 -44 -15 -28
0 -50 5 -50 10 0 13 41 30 58 24 8 -2 17 -4 22 -4z"/>
<path d="M2640 350 c0 -93 1 -100 20 -100 18 0 20 7 20 71 0 69 1 71 30 82 18
7 30 19 30 29 0 21 -13 23 -43 7 -16 -9 -22 -9 -25 0 -2 6 -10 11 -18 11 -11
0 -14 -20 -14 -100z"/>
</g>
</svg>
